<svg xmlns="http://www.w3.org/2000/svg" viewBox="0 0 441.66 436.63"><defs><style>.cls-1{fill:#cfe3f1;}.cls-1,.cls-10,.cls-11,.cls-12,.cls-13,.cls-14,.cls-15,.cls-16,.cls-17,.cls-18,.cls-19,.cls-2,.cls-21,.cls-23,.cls-25,.cls-26,.cls-27,.cls-3,.cls-4,.cls-5,.cls-6,.cls-7,.cls-8,.cls-9{fill-rule:evenodd;}.cls-2{fill:#7faaba;}.cls-3{fill:#94bbcc;}.cls-28,.cls-4{fill:#fff;}.cls-5{fill:#b9b9c1;}.cls-6{fill:#577f7f;}.cls-7{fill:#73a5a7;}.cls-8{fill:#383260;}.cls-9{fill:#643954;}.cls-10{fill:#443e71;}.cls-11{fill:#855169;}.cls-12{fill:#714360;}.cls-13,.cls-20{fill:#f5f5f4;}.cls-14{fill:#e8bfc5;}.cls-15{fill:#e6b5a3;}.cls-16{fill:#d2887a;}.cls-17,.cls-18,.cls-21,.cls-22,.cls-23,.cls-24,.cls-25{fill:none;stroke-linecap:round;stroke-linejoin:round;}.cls-17{stroke:#714360;}.cls-17,.cls-21,.cls-22,.cls-23,.cls-24,.cls-25{stroke-width:0.71px;}.cls-18{stroke:#d2887a;stroke-width:0.57px;}.cls-19{fill:#efd4c9;}.cls-21,.cls-22{stroke:#383260;}.cls-23,.cls-24{stroke:#855169;}.cls-25{stroke:#e8bfc5;}.cls-26,.cls-29{fill:#b2cbde;}.cls-27{fill:#ce6171;}</style></defs><g id="Layer_2" data-name="Layer 2"><g id="OBJECTS"><path class="cls-1" d="M37.77,297.2c18.31,0,33.28,16,33.28,35.6h0c0,35.72,27.33,64.95,60.73,64.95H361.89c43.39,0,78.89-38,78.89-84.38h0c0-46.4-35.5-84.37-78.89-84.37h0c-8.71,0-15.83-7.62-15.83-16.93h0c0-9.31,7.12-16.93,15.83-16.93h41.28c21.17,0,38.49-18.52,38.49-41.16h0c0-22.62-17.28-41.12-38.42-41.16H365.69c-18.31,0-33.28-16-33.28-35.6h0c0-35.72-27.33-64.95-60.73-64.95H79.05C35.66,12.27.16,50.24.16,96.64h0C.16,143.05,35.66,181,79.05,181h0c8.71,0,15.83,7.62,15.83,16.93h0c0,9.31-7.12,16.93-15.83,16.93H37.77C-12.59,214.88-12.59,297.2,37.77,297.2Z"/><path class="cls-2" d="M395.92,270.37c-6.17-25.83-30.44-12.35-41.24,9.35-10.24,20.57-33.86,98.08-54.05,124.52l6.48,3.9C344.82,381.35,403.82,303.44,395.92,270.37Z"/><path class="cls-3" d="M304.73,406.71c49.88-48,78-138.87,78.09-139.17a1.07,1.07,0,1,0-2-.64c-.09.31-28.24,91.3-77.92,138.68Z"/><path class="cls-4" d="M335.06,282.47c-11.44-19-27.37-2.14-30.49,17.87-2.59,16.58-2.32,70.4-8.48,101.16l8.54,5.14C326.4,372.11,348.57,304.91,335.06,282.47Z"/><path class="cls-5" d="M301.51,404.76c22.91-50.64,22.4-121,22.4-121.24a.9.9,0,0,0-1.79,0c0,.25.51,70.14-22.13,120.32Z"/><path class="cls-6" d="M392.55,347.66c20.57,2.69,12.07,22.64-3.9,32.8-10.8,6.87-43.58,21.39-68.33,35.63l-13.55-8.16C330.88,378.37,371.3,344.88,392.55,347.66Z"/><path class="cls-7" d="M311.61,410.85c35.15-32.25,84-53.16,84.21-53.25a.84.84,0,0,1,1.1.44.83.83,0,0,1-.44,1.09c-.19.09-48.54,20.79-83.4,52.6Z"/><path class="cls-2" d="M39.23,294.34c5.18-21.66,25.54-10.35,34.6,7.85,8.6,17.25,28.41,82.28,45.34,104.46l-5.43,3.27C82.1,387.45,32.6,322.09,39.23,294.34Z"/><path class="cls-3" d="M115.74,408.72C73.89,368.48,50.3,292.23,50.22,292a.91.91,0,0,1,.59-1.13.9.9,0,0,1,1.12.59c.08.26,23.69,76.6,65.38,116.35Z"/><path class="cls-4" d="M90.29,304.5c9.6-16,23-1.8,25.58,15,2.17,13.91,1.95,59.06,7.12,84.87l-7.17,4.31C97.56,379.7,79,323.32,90.29,304.5Z"/><path class="cls-5" d="M118.44,407.09c-19.22-42.48-18.79-101.5-18.79-101.71a.75.75,0,1,1,1.49,0c0,.22-.42,58.85,18.58,100.95Z"/><path class="cls-6" d="M42.06,359.19c-17.25,2.25-10.13,19,3.27,27.51,9.06,5.77,36.56,17.95,57.33,29.9L114,409.75C93.8,385,59.89,356.85,42.06,359.19Z"/><path class="cls-7" d="M110,412.2c-29.5-27.05-70.49-44.6-70.65-44.67a.7.7,0,0,0-.56,1.28c.16.07,40.73,17.44,70,44.13Z"/><path class="cls-8" d="M35.49,395.16H406.17a9.24,9.24,0,0,1,9.21,9.22h0a9.24,9.24,0,0,1-9.21,9.21H375.08a5.14,5.14,0,0,0-5.12,5.12h0a5.14,5.14,0,0,0,5.12,5.12h11.38a6.42,6.42,0,0,1,6.39,6.4h0a6.41,6.41,0,0,1-6.39,6.4H56.22a6.42,6.42,0,0,1-6.4-6.4h0a6.42,6.42,0,0,1,6.4-6.4h9a5.14,5.14,0,0,0,5.12-5.12h0a5.14,5.14,0,0,0-5.12-5.12H35.49a9.25,9.25,0,0,1-9.22-9.21h0a9.25,9.25,0,0,1,9.22-9.22Zm4.79,41.47a6.17,6.17,0,0,0,6.15-6.15V430a6.16,6.16,0,0,0-6.15-6.14h0A6.16,6.16,0,0,0,34.14,430v.51a6.16,6.16,0,0,0,6.14,6.15Z"/><path class="cls-8" d="M187.94,47.55c-.51,9.47-2.27,13.54-10.8,16.12C163.58,67.78,164,77.45,169.6,89.33c1.11,2.34,3.13,6-.23,11.72-6.39,11-7,26.9,16.57,29.55s23.19-20.54,23.19-20.54l1.16-5.14s15.74-5.3,9.61-24S223,73.62,223,73.62l2.13,5.11s18.75-4.49,18.74-15.54C243.89,14,189.74,13.87,187.94,47.55Z"/><path class="cls-9" d="M228.41,72.68s-8.59,7-12.69,13.12S201,112.13,201,112.13l3.15,11.1,6.13,1.49,15.24-14.91Z"/><path class="cls-10" d="M224.41,184s-3.59,15.12-3.59,29,11.27,178.55,11.27,178.55,0,1.45,1.24,1.45,9.52.29,13.95,0a1.87,1.87,0,0,0,1-1.53c.16-1.2,3.56-175,3.56-175l38.1,174.74s.45,1.74,1.48,1.74H307s1.29,0,1.33-2S296.44,283,295.77,273s-3.81-82-11.67-93.16S224.41,184,224.41,184Z"/><path class="cls-8" d="M276.28,328.57l13.66,62.65s.45,1.74,1.48,1.74h5Z"/><path class="cls-4" d="M224.65,179.68s-1,3.06-.47,4.13,31.59,6,59.92-3.93c0,0,1.33-1.58.38-5.42s-43.86-3.36-43.86-3.36Z"/><path class="cls-11" d="M224.65,179.68c23.6,5.72,59.83-5.22,59.83-5.22s2.31-4.89,1.65-6.46-3.73-12.34-3.73-15,1.66-3.15,1-4.81-3.31-6.12-3.31-8.44,2.31-32.47,2.31-32.47c-10.26-13.25-1.65-40.41-1.65-40.41A6.84,6.84,0,0,0,278,65.56c-2-.58-17.55-2.9-17.55-2.9l-20.75,4s-10.4,5.49-11.31,6-5.8,18.38-6.29,27,2.31,38.92,2.31,40.91-1.82,3.81-1.49,4.8,1,2,1.33,3.15-1.16,15.75-2.16,22c-.42,2.68-2.36,7.86,2.26,9.05Z"/><path class="cls-12" d="M223.91,155.32c-.3,3.32-.74,7.32-1.16,10.71l34.84-13.23,1.28-8.38-33.29,4.8Z"/><polygon class="cls-12" points="253.13 98.38 256.97 97.64 254.87 102.39 253.82 111.98 247.29 136.88 238.67 141.02 253.13 98.38"/><path class="cls-13" d="M183.94,158.14s-1.1,3.06-5.13,6.66c-61.63,55.1-35.5,151.5-74.26,214.05,0,0-.49,1.5.17,2.26s3,4.68,10.88,6c0,0-.9,5-1.93,8.66a1.5,1.5,0,0,0,.41,1.62c.77.55,7.26,3.69,16.37,4l-.4,2.58a1,1,0,0,0,.88,1.2c1,.18,17,6.08,49.59,2.21a1.78,1.78,0,0,0,.88-1.17,1.94,1.94,0,0,0,1,1.53c.92.5,18.32,5.84,47.92-.78a1.35,1.35,0,0,0,.78-1.27,44.83,44.83,0,0,0-.65-5.06s9.28-.09,16.53-3.71a2.07,2.07,0,0,0,1-1.75,12.75,12.75,0,0,0-.24-2.53s6.82-.89,10.14-2.6a1.64,1.64,0,0,0,.43-1.38c-.09-.92-9.33-6.67-13.28-100.46s-30.55-105.46-30-128.94l-1.62-2.53-25.78-.18Z"/><path class="cls-14" d="M216.11,168.16a31.82,31.82,0,0,1-1.08-8.91l-1.62-2.53-14.08-.1-4.88,5.52Z"/><path class="cls-14" d="M184.46,153.75a16.59,16.59,0,0,0-.45,4.39c.25,1.24,11.67,4.22,20.87,3.89s8.82-1.7,8.94-2.28,0-4,0-4Z"/><path class="cls-13" d="M190.32,82.09c-1.58,3.5-13.89,14.52-13.56,25.12s5.3,29.15,5.8,31.46-.25,11.52,0,12.76,1.9,2.32,1.9,2.32c13.92,4.47,29.4,2,29.4,2a2.82,2.82,0,0,0,1.16-2.56c-.08-1.83.67-7,4.81-15.9s5-15.74,2.91-19.69-15.42-23.29-15.42-23.29-2.47-3-1.56-5.07Z"/><path class="cls-14" d="M219.67,137.61l.16-.34a40.93,40.93,0,0,0,3.89-12.7s-2.52,4-11.1-.82-20.42.13-20.42.13l-6-.88,14.43,30s12.47-4.28,12.47-5.27C213.07,147.28,216.22,142.6,219.67,137.61Z"/><path class="cls-15" d="M190.32,82.09c-1.1,2.44-7.42,8.54-11,15.6.85.34,2.11.11,4-1.34,5.88-4.47,10.93-4.89,15-.41s10.06,7.16,13.35,4.65c-2.45-3.59-4.32-6.3-4.32-6.3s-2.47-3-1.56-5.07Z"/><path class="cls-16" d="M206.93,93.75c-.66-1-1.84-3-1.17-4.53l-10.09-4.66Z"/><path class="cls-17" d="M247.08,73.53s-4.14,27.33-4.14,32.13-1.32,20.37-.83,36.27-1.65,30.31-1.65,32.63a37.72,37.72,0,0,0,1.16,6.77"/><path class="cls-15" d="M242.56,117.6a71.34,71.34,0,0,0,3.56-6.66c.14-.32.16-6.41.27-7.17s3-5.47,3.27-5.88A27.4,27.4,0,0,1,253,95.83c.22-.14.66.25.66.25s1.61-.93,1.71-1,.88.15,1,1c0,0,.74.32.9.73s-.38,1.26-2.54,3.12l-1.36,3.89s2.24-2.8,2.45-3,1.91-1.72,2-1.84.77.56.26,1.17l-1.29,1.62a36.21,36.21,0,0,0-1.37,3.56c0,.33,0,4.32-1.28,6.35-.24.39-1,.85-1.49,1.48-1.49,1.84-4,9-4,9Z"/><path class="cls-18" d="M253.67,96.08s-2.32,1.54-2.65,1.8a3,3,0,0,0-.64.74,41.76,41.76,0,0,0-1.8,3.93"/><path class="cls-18" d="M256.35,96.05l-2.83,2.12a2.53,2.53,0,0,0-.68.76c-.19.39-1.68,3.91-1.68,3.91"/><path class="cls-15" d="M217.42,159.29s-25.34-26.67-30-34.12S180,108.44,183,101.82s10.44-5.63,10.44-5.63,2.65.16,6.12,5.79S226,143.89,226,143.89l19.88-31.62,5.77,2.19L236.43,153.4C233.17,161.73,225.59,167.92,217.42,159.29Z"/><path class="cls-15" d="M208.18,63.07h0a8.53,8.53,0,0,0-11.24,4.28l-6.18,13.77A8.53,8.53,0,0,0,195,92.36h0a8.53,8.53,0,0,0,11.25-4.27l6.18-13.78A8.53,8.53,0,0,0,208.18,63.07Z"/><path class="cls-16" d="M194.31,73.21l-3.37,7.5,12.9,10.52a8.38,8.38,0,0,0,2.44-3.14l5.66-12.61c-6-2.28-15-5.09-15-5.09Z"/><path class="cls-15" d="M243.62,40.64h0A8.53,8.53,0,0,0,237.47,51l3.7,14.63a8.53,8.53,0,0,0,10.34,6.16h0a8.54,8.54,0,0,0,6.16-10.33L254,46.8A8.55,8.55,0,0,0,243.62,40.64Z"/><path class="cls-16" d="M238.24,54l2.93,11.59A8.52,8.52,0,0,0,243,69.05l13.45-12.58-.52-2L241.15,51.6Z"/><path class="cls-15" d="M219.65,35.59a18.4,18.4,0,0,0-22.84,12.34L193,60.82l-.93,3.1a18.7,18.7,0,0,0-.72,4c1.37,19.57,22.43,25.86,34.31,10.24a18.62,18.62,0,0,0,1.59-3.74l.92-3.1L232,58.43A18.41,18.41,0,0,0,219.65,35.59Z"/><path class="cls-16" d="M229.18,67.8l2.8-9.37c.13-.45.25-.89.35-1.34-3.17-5.14-7.44-11.26-8.93-11.42-2.46-.25-19.85-1.33-21.43-.91s-4.8,9.11-4.8,9.11,15.28,5,21.64-2.5l1.38-.48S221.28,62.93,229.18,67.8Z"/><path class="cls-16" d="M220.37,74a2.41,2.41,0,1,0,1.56,3A2.41,2.41,0,0,0,220.37,74Z"/><path class="cls-16" d="M200.59,67.65a2.41,2.41,0,1,0,1.56,3A2.41,2.41,0,0,0,200.59,67.65Z"/><path class="cls-8" d="M202.07,59.19a.67.67,0,1,1-.23-1.33,6.13,6.13,0,0,1,5.5,1.67.67.67,0,1,1-1,.91A4.74,4.74,0,0,0,202.07,59.19Z"/><path class="cls-8" d="M222.24,71.45a1.67,1.67,0,0,0-1.13-2.09,1.66,1.66,0,0,0-1.27.13,1.62,1.62,0,0,0-.81,1,.68.68,0,0,1-.84.45.67.67,0,0,1-.45-.84,3,3,0,0,1,3.76-2,3,3,0,0,1,1.8,1.46,3.18,3.18,0,0,1,.35,1.16.49.49,0,0,0,.41,0,.19.19,0,1,1,.14.36.77.77,0,0,1-.54,0v0a.93.93,0,0,0,.58.11.18.18,0,0,1,.21.16.19.19,0,0,1-.16.22,1.24,1.24,0,0,1-.68-.09h0a1,1,0,0,0,.55.25.2.2,0,0,1,.16.23.19.19,0,0,1-.22.15,1.48,1.48,0,0,1-.6-.23.67.67,0,0,1-1.26-.47Z"/><path class="cls-8" d="M230.66,69.07s-10.27-7.62-8.78-18.72c0,0,.11-.48-.23-.52s-1.94,4-1,8.64c0,0,.25.74-.17.91s-2.52-3.85-1.53-8.82c0,0-7.33,6.53-19.21,2.24a20.46,20.46,0,0,0-4.64,13.58c.17,8.44,5,21.2-12.26,20.37s4-19,4-19,10.93-30.14,12.09-30.8,17-6,17-6l11.29,4,9.44,15.73Z"/><path class="cls-8" d="M224.5,65.89a4.7,4.7,0,0,0-4.26-1.3.68.68,0,0,1-.33-1.31,6.09,6.09,0,0,1,5.51,1.63.66.66,0,0,1,0,.94A.68.68,0,0,1,224.5,65.89Z"/><path class="cls-10" d="M231.62,34.07A11.15,11.15,0,0,0,230,30a29.23,29.23,0,0,0-6.81-3.89c-2.65,7.5-11.73,17.76-23.75,12.26a29.08,29.08,0,0,1-7-4.4,22.12,22.12,0,0,0-2,3.38c3.41,3.53,8.36,6.49,15.54,7.79C220,47.62,227.61,40.61,231.62,34.07Z"/><path class="cls-8" d="M200.91,65.08A1.67,1.67,0,0,1,203,64,1.7,1.7,0,0,1,204.13,66a.67.67,0,0,0,.45.84.69.69,0,0,0,.84-.46,3,3,0,0,0-2-3.76,3,3,0,0,0-2.3.24,3,3,0,0,0-.93.77.48.48,0,0,1-.37-.19.19.19,0,1,0-.31.23.94.94,0,0,0,.44.31h0a.9.9,0,0,1-.55-.23.19.19,0,0,0-.25.29,1.23,1.23,0,0,0,.62.3h0a1.18,1.18,0,0,1-.6-.09.2.2,0,0,0-.26.1.19.19,0,0,0,.1.25,1.48,1.48,0,0,0,.63.13.67.67,0,0,0,1.31.3Z"/><path class="cls-19" d="M213.74,71.38s.83,2.62.56,3.59-1.88,0-2-.62S212.85,70.68,213.74,71.38Z"/><path class="cls-16" d="M204.5,75.76a.48.48,0,0,1,.62-.72s4.66,4,8.72,2.65a.48.48,0,1,1,.31.91C209.56,80.17,204.51,75.78,204.5,75.76Z"/><path class="cls-16" d="M261,31.31h.41a5.46,5.46,0,1,1-4.33,1.78c.11,1.61.66,3.55,2.73,3.43l-.54-3.1A1.87,1.87,0,0,1,261,31.31Z"/><path class="cls-15" d="M236.53,8.3a18.77,18.77,0,0,1,21.34,15.62L260,37.46l.5,3.26a18.58,18.58,0,0,1,.18,4.13c-4.1,19.56-26.22,23-36,5.58a18.2,18.2,0,0,1-1.08-4L223,43.18l-2.09-13.55A18.74,18.74,0,0,1,236.53,8.3Z"/><path class="cls-16" d="M238.64,8.1a18.69,18.69,0,0,1,12,3.78l1.59,10.35-1.49-1.16-7.14,5.7-7.41.9-14.43,7.48-.85-5.52a18.65,18.65,0,0,1,4-14.64C229.59,12.61,234.48,10.17,238.64,8.1Z"/><path class="cls-16" d="M230.48,46.93a2.46,2.46,0,1,1-2,2.84A2.44,2.44,0,0,1,230.48,46.93Z"/><path class="cls-16" d="M251.31,43.3a2.46,2.46,0,1,1-2,2.84A2.46,2.46,0,0,1,251.31,43.3Z"/><path class="cls-8" d="M251,34.55a.68.68,0,0,0,.86-.44.68.68,0,0,0-.44-.86,6.23,6.23,0,0,0-5.78.92.68.68,0,0,0,.87,1A4.84,4.84,0,0,1,251,34.55Z"/><path class="cls-8" d="M227.43,38.2a4.79,4.79,0,0,1,4.48-.72.69.69,0,0,0,.89-.38.67.67,0,0,0-.37-.89,6.23,6.23,0,0,0-5.79.87.68.68,0,0,0-.16,1A.69.69,0,0,0,227.43,38.2Z"/><path class="cls-19" d="M237.53,45.24s-1.21,2.52-1.07,3.53,1.9.27,2.14-.34S238.52,44.65,237.53,45.24Z"/><path class="cls-16" d="M246.24,50.94a.5.5,0,0,0,.15-.68.5.5,0,0,0-.68-.14s-5.25,3.44-9.16,1.47a.49.49,0,0,0-.44.87C240.52,54.68,246.23,51,246.24,50.94Z"/><path class="cls-8" d="M248,41.19a.68.68,0,0,1-1.34.25,3.06,3.06,0,0,1,.49-2.26,3,3,0,0,1,4.19-.76,3,3,0,0,1,1.26,1.93.68.68,0,0,1-.55.79.67.67,0,0,1-.79-.54,1.62,1.62,0,0,0-.69-1.07,1.69,1.69,0,0,0-1.24-.27A1.67,1.67,0,0,0,248,41.19Z"/><path class="cls-8" d="M229,44.14a.67.67,0,0,1-.54.79.68.68,0,0,1-.79-.54,3,3,0,0,1,.49-2.26,3,3,0,0,1,5.44,1.17.68.68,0,0,1-1.33.25,1.66,1.66,0,0,0-1.93-1.34A1.66,1.66,0,0,0,229,44.14Z"/><path class="cls-13" d="M257.58,61.1l2.89,1.56L253,74.74a.89.89,0,0,1-.83.39c-.53-.06-4.68-3.33-4.68-3.33Z"/><path class="cls-13" d="M247.45,71.8l-6.28-6.19-1.45,1.08,3.06,7.83a.68.68,0,0,0,.89.23A41.18,41.18,0,0,0,247.45,71.8Z"/><path class="cls-8" d="M259.91,37.14s-3.86-1.24-3.61-6.21A28.46,28.46,0,0,1,250.75,26c-1.74-2.32-.58-7-.58-7-2.09,1.67-5.51,8.76-10,9.68-2.82.57-6-1.28-3.77-4.42,0,0-8.53,9.86-16.81,8-10.4-2.29-13.32-17-6-13.09-7.59-9.86,5.18-22,14-12.06,0,0,13.27-7.15,16.91-7.15s9.94,2.82,10.94,9.11c0,0,6.12,1,7.28,3.15s-.2,19.2-.2,19.2A5.26,5.26,0,0,0,259.91,37.14Z"/><path class="cls-10" d="M211.35,11.22a9.46,9.46,0,0,1,7-7.58c1.92,6.45,9.9,16.11,20.59,11.22,7.61-3.48,10.68-8.79,11.92-12.69a11.62,11.62,0,0,1,1.42,1.14c-1.5,6.29-5.95,15-19,17.35C221.33,22.82,214.78,16.82,211.35,11.22Z"/><path class="cls-11" d="M293,390.63s5-6.22,11.11-1.27a9.05,9.05,0,0,1,4.59,4.49c1.25,3.15,3.61,4.58,4,8s-.56,6.15-4.93,6.15h-7.09c-3.13,0-7.78.52-9.38-3.68s0-8-.56-10.19S293,390.63,293,390.63Z"/><path class="cls-9" d="M293,390.63s5-6.22,11.11-1.27a8.84,8.84,0,0,1,1.47.81c.36,2.73.65,5.64.39,6.38-.54,1.48-8.43,1.17-9.55.64-.83-.4-2.72-4.43-3.63-6.45Z"/><rect class="cls-20" x="290.33" y="403.28" width="23.18" height="4.75" rx="1.23"/><path class="cls-15" d="M200.65,149.21s-7.84-1.59-10.06-2.47-2.16,1.1-1.24,2.25a15.2,15.2,0,0,0,3.53,2.59c.47.29.2.57-1.2,1s-6.37,1.4-7.22,1.14-1.5-1.82-1.86-2.14c0,0-1.27,1.87-.77,2.72a5.73,5.73,0,0,0,3.12,2.46s-.2,1.91.29,2.35a6.65,6.65,0,0,0,1.68.85,3.53,3.53,0,0,0,.88,1.37,6.32,6.32,0,0,0,1.2.74s1.05,1,1.5,1.29,4.33.48,5.39-.56c.17-.16,4.31-1.49,6.27-2.88a5.8,5.8,0,0,0,1.37-1.67c1.66-3.38-1.45-8.69-1.45-8.69Z"/><path class="cls-9" d="M280.75,66.88c13.74,7.39,12.93,20,8.11,35.38-3,9.57-9.92,24.16-20,42.75a24.23,24.23,0,0,1-11.27,7.79c-7.45,2.48-55.1,9.24-55.1,9.24s-.7,0-.74-.53-1.52-8.76-1.36-13c0,0,0-1.16,1.74-1.82s48.09-13.41,48.09-13.41,2.16-3.81,5.47-3.14l20.37-57.81S278.06,65.57,280.75,66.88Z"/><path class="cls-8" d="M247.76,72.82s6.83-4.3,7.55-4.59,2.36,3,2.53,5.2-3.76,5.65-4.5,6.24-3.51-2-5.89-4.58Z"/><path class="cls-8" d="M246.62,72.8l-3.14-2.67a.86.86,0,0,0-1,.27,30.23,30.23,0,0,0-1.65,3,2.82,2.82,0,0,0-.32,1.53c.15.66,1.21,3.55,1.21,3.55A1.27,1.27,0,0,0,243,79c.67-.22,3.75-4,3.75-4Z"/><path class="cls-8" d="M247.39,71.75h0A1.22,1.22,0,0,1,248.61,73v1.91a1.22,1.22,0,0,1-1.22,1.22h0a1.23,1.23,0,0,1-1.23-1.22V73A1.23,1.23,0,0,1,247.39,71.75Z"/><path class="cls-21" d="M245.68,186c.67,6.41,6.16,30.49,6.16,30.49"/><path class="cls-21" d="M240.47,185.9s4.8,19.84,5.71,21.58,4.39,3.31,4.39,3.31"/><path class="cls-21" d="M229.56,185s-1.48,4.28-3.75,4.95"/><path class="cls-21" d="M269,183.86A14.7,14.7,0,0,0,284.6,192"/><path class="cls-21" d="M281.25,180.83s4.93,14.6,5.84,23.22,9.6,90.35,9.6,90.35"/><line class="cls-22" x1="254.62" y1="216.88" x2="244.19" y2="215.55"/><path class="cls-8" d="M248.66,219c.15,2-3.1,23.92-5.73,41.09.92,8.44,1.62,17.76,2.06,28.07,1.1,26.2,2.62,45.53,4.24,59.81,1-51.12,2.57-129.35,2.61-131.47l-4.7-.6A4.53,4.53,0,0,1,248.66,219Z"/><path class="cls-17" d="M280.09,139.76s-1.62,6.31-10.4,9.21"/><path class="cls-17" d="M282.74,151.11s-2.95,3.74-11.64,4.16"/><path class="cls-17" d="M247.41,174.23s15.08-2.65,23.52-7.45"/><path class="cls-23" d="M250.22,133.29a6.6,6.6,0,0,1,6.22,5.08"/><line class="cls-24" x1="255.69" y1="130.15" x2="258.72" y2="130.75"/><path class="cls-25" d="M186.83,158.83c-7,29.55-33.11,35.54-42.07,110.47"/><path class="cls-25" d="M115.6,387.13s19.22-47.27,26.51-103.59"/><path class="cls-25" d="M130.45,401.38s19.61-72.12,28.22-133.07,18.55-74.87,18.55-74.87"/><path class="cls-25" d="M181.4,406.2s4.43-111.89,9.07-157.6"/><path class="cls-25" d="M199.1,161.54s-5.65,43.66-8.63,66.19"/><path class="cls-25" d="M230.41,400.62a663.08,663.08,0,0,1-7.14-93.72c-.07-50.06-9.61-119.58-13.59-133.17"/><path class="cls-25" d="M247.7,392.63s-9.53-27.93-12.18-102.13"/><path class="cls-25" d="M182.56,138.67s1.94,3.92,9.48,5.5"/><path class="cls-26" d="M70.49,59.68h43.89a5.82,5.82,0,0,1,5.8,5.8v40.89a.65.65,0,0,1-1.11.45L109.2,97H70.49a5.82,5.82,0,0,1-5.8-5.8V65.48A5.82,5.82,0,0,1,70.49,59.68Z"/><path class="cls-4" d="M417.41,272.44a1,1,0,0,1,2,0v4.44a1,1,0,0,1-2,0v-4.44Zm-6.72,3.6a1,1,0,0,1,1.39-1.39l3.14,3.14a1,1,0,0,1-1.39,1.39L410.69,276Zm-2.21,7.31a1,1,0,0,1,0-2h4.44a1,1,0,0,1,0,2Zm3.6,6.72a1,1,0,0,1-1.39-1.39l3.14-3.14a1,1,0,0,1,1.39,1.39l-3.14,3.14Zm7.31,2.21a1,1,0,1,1-2,0v-4.44a1,1,0,1,1,2,0v4.44Zm6.72-3.6a1,1,0,0,1-1.39,1.39l-3.14-3.14a1,1,0,0,1,0-1.39,1,1,0,0,1,1.4,0l3.13,3.14Zm2.21-7.31a1,1,0,1,1,0,2h-4.44a1,1,0,0,1,0-2Zm-3.6-6.72a1,1,0,0,1,1.39,1.39L423,279.18a1,1,0,0,1-1.4,0,1,1,0,0,1,0-1.39Z"/><path class="cls-26" d="M404.81,175.69a23.06,23.06,0,1,0-23.05-23.06A23.1,23.1,0,0,0,404.81,175.69Z"/><path class="cls-26" d="M314.2,126.18a4.53,4.53,0,0,1,.91.09l.11,0V114a1.53,1.53,0,0,1,.39-1,1.59,1.59,0,0,1,1-.51l17.06-2h.16a1.32,1.32,0,0,1,.88.34,1.28,1.28,0,0,1,.42.83.86.86,0,0,1,0,.16v17.55a4.83,4.83,0,1,1-4.83-4.83,4.7,4.7,0,0,1,.92.09l.11,0v-5.1L319,120.93V131a4.83,4.83,0,0,1-9.66,0,4.81,4.81,0,0,1,4.83-4.83Z"/><path class="cls-4" d="M71.11,136.85a4.6,4.6,0,0,1,.91.09l.11,0V124.63a1.55,1.55,0,0,1,.39-1,1.5,1.5,0,0,1,1-.5l17.07-2h.16a1.27,1.27,0,0,1,.87.33,1.34,1.34,0,0,1,.43.83.92.92,0,0,1,0,.16V140a4.83,4.83,0,0,1-9.66,0,4.85,4.85,0,0,1,4.83-4.83,4.7,4.7,0,0,1,.92.09l.11,0v-5.1L75.94,131.6v10.08a4.83,4.83,0,0,1-9.66,0,4.81,4.81,0,0,1,4.83-4.83Z"/><path class="cls-4" d="M315.13,200.33a4.7,4.7,0,0,1,.92.09l.11,0V188.11a1.51,1.51,0,0,1,.39-1,1.45,1.45,0,0,1,.95-.51l7.49-.87h.16a1.31,1.31,0,0,1,.87.33,1.34,1.34,0,0,1,.43.83c0,.06,0,.11,0,.16v5.46a1.77,1.77,0,0,1-1.48,2l-2.33.27-2.69.31v10.08a4.83,4.83,0,0,1-9.66,0,4.85,4.85,0,0,1,4.83-4.83Z"/><path class="cls-26" d="M121.43,208.43a4.6,4.6,0,0,1,.91.09l.11,0V196.2a1.53,1.53,0,0,1,.39-1,1.57,1.57,0,0,1,1-.51l7.49-.87h.16a1.27,1.27,0,0,1,.87.33,1.29,1.29,0,0,1,.43.83,1,1,0,0,1,0,.17v5.45a1.77,1.77,0,0,1-1.48,2l-2.32.27-2.69.32v10.08a4.83,4.83,0,0,1-4.83,4.82,4.83,4.83,0,1,1,0-9.65Z"/><path class="cls-27" d="M74,59.68h43.89a5.82,5.82,0,0,1,5.8,5.8v40.89a.64.64,0,0,1-.4.59.63.63,0,0,1-.71-.14L112.67,97H74a5.82,5.82,0,0,1-5.8-5.8V65.48A5.82,5.82,0,0,1,74,59.68Z"/><path class="cls-4" d="M83.43,68.18h0a7.9,7.9,0,0,1,11.15,0l1.33,1.33,1.34-1.33a7.9,7.9,0,0,1,11.15,0h0a7.92,7.92,0,0,1,0,11.15l-1.34,1.33L95.91,91.81,84.77,80.66l-1.34-1.33A7.9,7.9,0,0,1,83.43,68.18Z"/><circle class="cls-28" cx="401.43" cy="150.35" r="23.05"/><path class="cls-27" d="M389.82,140.42h0a7.36,7.36,0,0,1,10.37,0l1.24,1.25,1.25-1.25a7.36,7.36,0,0,1,10.37,0h0a7.36,7.36,0,0,1,0,10.37L411.8,152l-10.37,10.37L391.06,152l-1.24-1.25A7.36,7.36,0,0,1,389.82,140.42Z"/><path class="cls-4" d="M91.18,237.75a1,1,0,0,1,2,0v4.44a1,1,0,1,1-2,0v-4.44Zm-6.73,3.61a1,1,0,0,1,1.4-1.4L89,243.1a1,1,0,1,1-1.4,1.4l-3.14-3.14Zm-2.21,7.3a1,1,0,0,1,0-2h4.44a1,1,0,1,1,0,2Zm3.61,6.73a1,1,0,0,1-1.4-1.4l3.14-3.14a1,1,0,0,1,1.4,1.4l-3.14,3.14Zm7.3,2.2a1,1,0,1,1-2,0v-4.43a1,1,0,1,1,2,0v4.43Zm6.73-3.6a1,1,0,1,1-1.4,1.4l-3.14-3.14a1,1,0,0,1,1.4-1.4L99.88,254Zm2.21-7.3a1,1,0,0,1,0,2H97.65a1,1,0,1,1,0-2ZM98.48,240a1,1,0,0,1,1.4,1.4l-3.14,3.14a1,1,0,1,1-1.4-1.4Z"/><path class="cls-4" d="M297.92,35.19a.94.94,0,0,1,1.87,0v4.19a.94.94,0,1,1-1.87,0V35.19Zm-6.36,3.41a.94.94,0,0,1,0-1.32.92.92,0,0,1,1.32,0l3,3a.94.94,0,0,1,0,1.32.92.92,0,0,1-1.32,0l-3-3Zm-2.09,6.9a.94.94,0,0,1,0-1.87h4.2a.94.94,0,0,1,0,1.87Zm3.41,6.36a.93.93,0,0,1-1.32-1.32l3-3a.93.93,0,0,1,1.32,1.32l-3,3ZM299.79,54a.94.94,0,0,1-1.87,0v-4.2a.94.94,0,0,1,1.87,0V54Zm6.35-3.41a.92.92,0,0,1,0,1.32.94.94,0,0,1-1.32,0l-3-3a.92.92,0,0,1,0-1.32.94.94,0,0,1,1.32,0l3,3Zm2.09-6.91a.94.94,0,0,1,0,1.87H304a.94.94,0,0,1,0-1.87Zm-3.41-6.35a.93.93,0,1,1,1.32,1.32l-3,3a.93.93,0,1,1-1.32-1.32Z"/><rect class="cls-29" x="133.71" y="44.84" width="4.27" height="4.27" rx="1"/><rect class="cls-28" x="141.61" y="44.84" width="4.27" height="4.27" rx="1"/><rect class="cls-29" x="149.51" y="44.84" width="4.27" height="4.27" rx="1"/><rect class="cls-28" x="157.41" y="44.84" width="4.27" height="4.27" rx="1"/><rect class="cls-29" x="165.32" y="44.84" width="4.27" height="4.27" rx="1"/><rect class="cls-28" x="149.8" y="36.22" width="4.27" height="4.27" rx="1"/><rect class="cls-29" x="157.7" y="36.22" width="4.27" height="4.27" rx="1"/><rect class="cls-28" x="165.6" y="36.22" width="4.27" height="4.27" rx="1"/><rect class="cls-29" x="327.54" y="232.74" width="4.27" height="4.27" rx="1"/><rect class="cls-28" x="335.44" y="232.74" width="4.27" height="4.27" rx="1"/><rect class="cls-29" x="343.35" y="232.74" width="4.27" height="4.27" rx="1"/><rect class="cls-28" x="351.25" y="232.74" width="4.27" height="4.27" rx="1"/><rect class="cls-29" x="359.15" y="232.74" width="4.27" height="4.27" rx="1"/><rect class="cls-28" x="343.63" y="224.12" width="4.27" height="4.27" rx="1"/><rect class="cls-29" x="351.53" y="224.12" width="4.27" height="4.27" rx="1"/><rect class="cls-28" x="359.44" y="224.12" width="4.27" height="4.27" rx="1"/><path class="cls-4" d="M38.57,72.56a1.71,1.71,0,1,0-1.71-1.7A1.71,1.71,0,0,0,38.57,72.56Z"/><path class="cls-4" d="M119.66,153.52a1.71,1.71,0,1,0-1.71-1.71A1.72,1.72,0,0,0,119.66,153.52Z"/><path class="cls-4" d="M354.52,153.48a1.71,1.71,0,1,0-1.7-1.71A1.72,1.72,0,0,0,354.52,153.48Z"/><path class="cls-4" d="M314.63,254.25a1.71,1.71,0,1,0-1.7-1.7A1.71,1.71,0,0,0,314.63,254.25Z"/><path class="cls-4" d="M53.83,237a1.71,1.71,0,1,0-1.71-1.71A1.71,1.71,0,0,0,53.83,237Z"/><path class="cls-4" d="M123.11,271.66A1.71,1.71,0,1,0,121.4,270,1.71,1.71,0,0,0,123.11,271.66Z"/><path class="cls-4" d="M397.56,303.59a1.71,1.71,0,1,0,0-3.41,1.71,1.71,0,0,0,0,3.41Z"/></g></g></svg>